<svg xmlns="http://www.w3.org/2000/svg" width="2637.996" height="2678.2993" version="1.1"><rect id="backgroundrect" width="100%" height="100%" x="0" y="0" fill="none" stroke="none"/>
 <defs>
  <filter id="a" x="-0.14541999995708466" y="-0.14260999858379364" width="1.2907999753952026" height="1.2851999998092651" color-interpolation-filters="sRGB">
   <feGaussianBlur stdDeviation="10.890217"/>
  </filter>
 </defs>
 
<g class="currentLayer" style=""><title>Layer 1</title><g id="svg_1" class="selected" filter="">
  <g id="svg_2" filter="">
   <path d="m1356.5912257873533,297.12281441955565 c-10.971822600000001,-0.07959000000000002 -21.941826,0.022740000000000003 -32.910464999999995,0.2660580000000001 c-4.511388600000002,0.10233000000000005 -9.0150456,0.31381200000000015 -13.523477999999999,0.46617000000000014 c-0.5412120000000001,0.022740000000000003 -1.0801500000000006,0.04548000000000001 -1.6211346,0.06822000000000002 c-0.9107370000000004,0.03411000000000001 -1.8212466000000003,0.056850000000000005 -2.7315288000000004,0.09096000000000001 c-4.129584,0.15576900000000007 -8.264966700000002,0.22171500000000005 -12.391026,0.4218270000000001 c-1.2373971000000001,0.056850000000000005 -2.4714969,0.15804300000000007 -3.7085529000000013,0.22171500000000005 c-1.3907784000000003,0.06822000000000002 -2.7846267000000005,0.10233000000000005 -4.1749503,0.17737200000000006 c-3.454888200000002,0.19215300000000007 -6.896587199999999,0.5309790000000002 -10.348519199999998,0.7549680000000003 c-0.213756,0.011370000000000002 -0.4297860000000001,0.008186399999999998 -0.6435420000000002,0.022740000000000003 c-0.09096000000000001,0.006367200000000002 -0.19215300000000007,0.011370000000000002 -0.2887980000000001,0.022740000000000003 c-6.0077943,0.3956760000000002 -12.013542,0.7959 -18.01008,1.2879936000000003 c-2.0404602000000005,0.16713900000000007 -4.0901301,0.2660580000000001 -6.1292259,0.44456700000000016 c-3.0121404000000007,0.2637840000000001 -6.0072258,0.6446790000000001 -9.015955199999999,0.9323400000000003 c-0.23649600000000004,0.022740000000000003 -0.47412900000000013,0.04548000000000001 -0.7106250000000003,0.06822000000000002 c-0.056850000000000005,0.005685000000000001 -0.11824800000000002,0.011370000000000002 -0.17737200000000006,0.022740000000000003 c-0.03411000000000001,0.0028425000000000013 -0.056850000000000005,-0.0028425000000000013 -0.09096000000000001,0 c-5.9742527999999995,0.5764590000000002 -11.940774,1.1927130000000001 -17.898654,1.8654759000000005 c-4.6117856999999995,0.5207460000000003 -9.2115192,1.0869720000000007 -13.812276,1.6654776000000004 c-0.17850900000000006,0.022740000000000003 -0.3547440000000001,0.04548000000000001 -0.5332530000000002,0.06822000000000002 c-0.17737200000000006,0.022740000000000003 -0.3547440000000001,0.04548000000000001 -0.5332530000000002,0.06822000000000002 c-0.06822000000000002,0.008413800000000003 -0.13302900000000006,0.011370000000000002 -0.20011200000000007,0.022740000000000003 c-6.238605300000002,0.7913520000000004 -12.459246,1.6354608000000004 -18.676362000000005,2.5316442000000006 c-4.7368557000000004,0.6833370000000003 -9.467571600000001,1.3656507000000002 -14.18976,2.1097035000000006 c-6.460888800000002,1.0176150000000004 -12.889031999999998,2.1325572000000004 -19.319904000000005,3.2644407000000006 c-4.6445313,0.817503 -9.295884599999999,1.6102193999999999 -13.923702,2.487073800000001 c-6.077037599999999,1.1514399000000002 -12.119283,2.4105537000000004 -18.165849,3.6642099000000012 c-4.9685763000000005,1.0301220000000006 -9.9550035,2.0094201000000003 -14.901521999999998,3.1090128 c-21.562068,4.7930235 -42.901284,10.2422097 -63.95625,16.344375 c-2.7696183000000003,0.8027220000000003 -5.501260800000001,1.6840107000000004 -8.260987199999999,2.5093590000000003 c-7.390158900000004,2.2099869 -14.75826,4.467955200000002 -22.073718,6.839737199999999 c-0.011370000000000002,0.005116500000000001 -0.03411000000000001,0.022740000000000003 -0.04548000000000001,0.022740000000000003 c-0.04548000000000001,0.011370000000000002 -0.09096000000000001,0.03411000000000001 -0.13302900000000006,0.04548000000000001 c-0.13416600000000006,0.04548000000000001 -0.2660580000000001,0.09096000000000001 -0.400224,0.13302900000000006 c-0.13189200000000006,0.04548000000000001 -0.2683320000000001,0.06822000000000002 -0.400224,0.11370000000000004 c-4.154484300000001,1.3520067000000002 -8.262806400000002,2.7929268000000005 -12.391026,4.1971218 c-5.9665212,2.0288628000000006 -11.922581999999998,4.080238200000001 -17.832708,6.217911900000002 c-0.03411000000000001,0.010346699999999999 -0.056850000000000005,0.011370000000000002 -0.09096000000000001,0.022740000000000003 c-0.12848100000000007,0.04548000000000001 -0.24900300000000014,0.11370000000000004 -0.37748400000000015,0.15576900000000007 c-0.16031700000000002,0.056850000000000005 -0.327456,0.10233000000000005 -0.4889100000000002,0.15576900000000007 c-4.1050248,1.4898111 -8.181738300000001,3.0322652999999997 -12.257997,4.5746058000000005 c-6.0414495,2.2855974 -12.055610999999999,4.6167885 -18.031683,7.017450300000002 c-4.206558900000002,1.6899231000000001 -8.396403900000001,3.405087600000002 -12.569534999999998,5.152088099999999 c-0.11370000000000004,0.04548000000000001 -0.21944100000000008,0.11370000000000004 -0.33314100000000013,0.15576900000000007 c-0.03411000000000001,0.011370000000000002 -0.07959000000000002,0.03411000000000001 -0.11370000000000004,0.04548000000000001 c-0.022740000000000003,0.011370000000000002 -0.056850000000000005,0.0105741 -0.09096000000000001,0.022740000000000003 c-0.011370000000000002,0.006253499999999998 -0.03411000000000001,0.011370000000000002 -0.04548000000000001,0.022740000000000003 c-0.03411000000000001,0.011370000000000002 -0.056850000000000005,0.03411000000000001 -0.09096000000000001,0.04548000000000001 c-5.362092,2.249440800000001 -10.684957500000001,4.562781000000001 -15.988494000000001,6.906365400000001 c-0.23081100000000013,0.10233000000000005 -0.45821100000000015,0.20920800000000006 -0.6878850000000002,0.3104010000000002 c-0.22740000000000007,0.10233000000000005 -0.46048500000000014,0.18760500000000008 -0.6890220000000002,0.2887980000000001 c-4.0172484000000015,1.7831571000000004 -8.0314269,3.5592648000000007 -12.013542,5.396315700000001 c-6.294432000000002,2.9032158 -12.516096,5.9114904 -18.720705,8.949440699999998 c-3.2297622000000006,1.581567 -6.4776027,3.1342542 -9.6822372,4.7523189000000015 c-0.03411000000000001,0.011370000000000002 -0.056850000000000005,0.03411000000000001 -0.09096000000000001,0.04548000000000001 c-0.03411000000000001,0.022740000000000003 -0.07959000000000002,0.022740000000000003 -0.11370000000000004,0.04548000000000001 c-1.3596246000000003,0.6867480000000001 -2.7531318000000002,1.3274475000000003 -4.108208400000002,2.0209038000000006 c-5.048962200000001,2.583718800000001 -9.984338100000002,5.319681900000001 -14.967467999999998,7.994474400000001 l-0.022740000000000003,0.022740000000000003 c-0.056850000000000005,0.022740000000000003 -0.10233000000000005,0.056850000000000005 -0.15576900000000007,0.09096000000000001 c-0.3320040000000001,0.17850900000000006 -0.6674190000000001,0.3536070000000001 -0.9994230000000003,0.5332530000000002 c-0.36725100000000016,0.19783800000000012 -0.7435980000000003,0.37862100000000015 -1.1097120000000007,0.5775960000000002 c-2.4867327000000006,1.3446162000000006 -5.014056300000001,2.6299947 -7.483847700000002,3.9973509000000007 c-0.5866920000000003,0.3251820000000001 -1.1904390000000002,0.6287610000000001 -1.7765625000000005,0.9550800000000003 c-8.736139500000002,4.8634037999999995 -17.379044999999998,9.863475 -25.892901,15.011811 c-6.169362000000001,3.730383300000001 -12.174995999999998,7.644505800000004 -18.254535,11.481425999999999 c-1.1256300000000006,0.7106250000000003 -2.2531929,1.4179527000000003 -3.375411900000002,2.1318750000000004 c-3.5497140000000007,2.257968300000001 -7.185612600000002,4.4126970000000005 -10.703831699999999,6.706480800000002 c-0.03411000000000001,0.022740000000000003 -0.056850000000000005,0.04548000000000001 -0.09096000000000001,0.06822000000000002 c-4.458518100000001,2.9075363999999997 -8.783325,5.962996499999999 -13.191474000000001,8.9272692 c-6.082040400000001,4.0901301 -12.225023999999998,8.106241500000001 -18.210192000000003,12.30234 c-10.344653400000002,7.2539463000000035 -20.553549,14.666163 -30.601218,22.229487 l-0.022740000000000003,0.022740000000000003 c-0.07959000000000002,0.056850000000000005 -0.163728,0.11711100000000003 -0.2444550000000001,0.17737200000000006 c-9.970921500000001,7.510112400000002 -19.773567,15.178949999999999 -29.446026000000003,22.984455 c-0.10233000000000005,0.09096000000000001 -0.22626300000000008,0.15804300000000007 -0.33314100000000013,0.2444550000000001 c-6.3443463000000015,5.122185 -12.505863,10.410599400000002 -18.720705,15.65649 c-0.15690600000000007,0.13302900000000006 -0.3320040000000001,0.2444550000000001 -0.4889100000000002,0.37748400000000015 c-0.056850000000000005,0.04548000000000001 -0.11824800000000002,0.10233000000000005 -0.17737200000000006,0.15576900000000007 c-0.5093760000000002,0.430923 -1.0233000000000003,0.8561610000000001 -1.5323349,1.2879936000000003 c-2.6024793000000006,2.2082814000000006 -5.2819335,4.343794800000001 -7.861331700000002,6.5733381 c-0.022740000000000003,0.022740000000000003 -0.056850000000000005,0.04548000000000001 -0.09096000000000001,0.06822000000000002 c-8.411639700000002,7.271569800000002 -16.642269,14.692314 -24.804792,22.185143999999998 c-0.3513330000000001,0.32177100000000014 -0.7151730000000003,0.6321720000000002 -1.0653690000000007,0.9550800000000003 c-0.24672900000000006,0.22740000000000007 -0.5082390000000002,0.43888200000000016 -0.7549680000000003,0.6662820000000002 c-0.06822000000000002,0.06822000000000002 -0.14894700000000002,0.13302900000000006 -0.22171500000000005,0.20011200000000007 c-0.21148200000000006,0.19556400000000007 -0.45480000000000015,0.40477200000000013 -0.6662820000000002,0.5991990000000001 l-0.022740000000000003,0.022740000000000003 c-0.12279600000000004,0.11370000000000004 -0.25468800000000014,0.21944100000000008 -0.37748400000000015,0.33314100000000013 c-8.976614999999999,8.301805500000002 -17.780406,16.754832 -26.448894,25.316442 c-0.17055000000000006,0.16941300000000004 -0.36156600000000017,0.31949700000000003 -0.5332530000000002,0.4889100000000002 c-7.385610900000001,7.303746900000002 -14.583161999999998,14.743478999999999 -21.740577,22.229487 c-1.2611604000000003,1.3190337000000003 -2.5656405,2.606117700000001 -3.819637800000001,3.930609000000001 c-0.03411000000000001,0.03411000000000001 -0.07959000000000002,0.06822000000000002 -0.11370000000000004,0.11370000000000004 c-68.15291699999999,72.001662 -125.7522,152.11923 -171.32315999999997,237.67847999999998 v0.022740000000000003 c-56.88411,106.79158799999999 -95.08617299999999,222.03335999999996 -111.74549699999999,340.45191 c-6.662251500000002,47.364008999999996 -9.8837136,95.23625699999998 -9.4823526,143.28474 c0.10233000000000005,12.005583 0.4434300000000001,24.021399000000002 0.9994230000000003,36.042899999999996 s1.3372257000000003,24.060056999999997 2.3539311000000005,36.086105999999994 c1.0972050000000007,12.982265999999997 2.4969657000000005,25.896311999999998 4.063865400000001,38.751234 c0.006367200000000002,0 0.011370000000000002,0.11370000000000004 0.022740000000000003,0.15918000000000004 c0.005457600000000002,0 0.011370000000000002,0.11370000000000004 0.022740000000000003,0.13644000000000003 c0.25582500000000014,2.0943540000000005 0.4877730000000001,4.194393000000001 0.7549680000000003,6.285336000000002 c0.004661700000000001,0 -0.004661700000000001,0.11370000000000004 0,0.11370000000000004 c0.006708300000000001,0 0.011370000000000002,0.11370000000000004 0.022740000000000003,0.15918000000000004 c1.5272183999999998,11.882786999999999 3.2750148,23.698490999999997 5.1964311,35.464166999999996 c0.011370000000000002,0.11370000000000004 0.03411000000000001,0.14781000000000005 0.04548000000000001,0.22740000000000007 c0.006139800000000001,0 0.011370000000000002,0.11370000000000004 0.022740000000000003,0.11370000000000004 c0.003524700000000001,0 -0.003524700000000001,0 0,0.11370000000000004 c0.0023877,0 -0.0023877,0 0,0 c0.4957320000000003,3.034653 1.0323960000000003,6.055662000000002 1.5543927000000004,9.082356 c0.011370000000000002,0.11370000000000004 0.03411000000000001,0.15918000000000004 0.04548000000000001,0.25014000000000014 c0.010119300000000003,0.11370000000000004 0.011370000000000002,0.11370000000000004 0.022740000000000003,0.18192000000000008 c1.9715580000000006,11.385918 4.061022900000001,22.732040999999995 6.395625,33.999711 c0.006253499999999998,0 0.011370000000000002,0.11370000000000004 0.022740000000000003,0.11370000000000004 c0.007617899999999999,0 0.011370000000000002,0.11370000000000004 0.022740000000000003,0.11370000000000004 c0.6253500000000001,3.02442 1.3250598000000002,6.021552000000002 1.9764471,9.038013 c1.9153902000000012,8.842449000000002 3.948914700000002,17.639418 6.084769199999999,26.403413999999998 c0.6537750000000001,2.691279 1.1911212000000002,5.423490000000001 1.8653622000000005,8.105673000000001 c0.32063400000000003,1.2768510000000002 0.7185840000000003,2.5241400000000005 1.0437660000000004,3.7975800000000017 c0.011370000000000002,0 0.03411000000000001,0.11370000000000004 0.04548000000000001,0.15918000000000004 c2.4721791000000004,9.649719000000003 5.103083400000002,19.232355 7.839046500000002,28.779744 c1.5305157,5.355270000000001 3.0954824999999997,10.690074 4.707975900000001,16.011233999999998 c2.5430142000000004,8.372868 5.16198,16.716174 7.905674700000001,25.006041 c0.21034500000000006,0.6367200000000002 0.4104570000000001,1.2745770000000003 0.6219390000000001,1.909023000000001 c0.5821440000000001,1.7521170000000001 1.0744650000000007,3.538344000000001 1.6654776000000004,5.285913000000001 c1.4824205999999998,4.383135000000001 3.1698422999999996,8.677584000000001 4.707862200000001,13.035705 c0.06822000000000002,0.18192000000000008 0.13416600000000006,0.37521000000000015 0.20011200000000007,0.5571300000000001 c0.022740000000000003,0.11370000000000004 0.04548000000000001,0.11370000000000004 0.06822000000000002,0.18192000000000008 c1.2227298000000002,3.4496580000000012 2.4512583000000006,6.891357000000002 3.7085529000000013,10.326234 c13.313133,36.42948 28.570535999999997,71.96073 45.657371999999995,106.48232399999999 c0.022740000000000003,0 0.04548000000000001,0.11370000000000004 0.06822000000000002,0.15918000000000004 c0.002956200000000001,0.005685000000000001 -0.002956200000000001,0 0,0 c34.606868999999996,69.88456799999999 76.550799,135.66684 125.18369999999999,196.06428 c103.96955399999999,129.14046 237.76943999999997,234.06281999999996 391.95800999999994,303.9201 h0.022740000000000003 c25.691651999999998,11.640606 51.943844999999996,22.334091 78.72360599999999,31.978125 h0.022740000000000003 c40.173621,14.466050999999998 81.53995499999999,26.620580999999998 123.91026,36.308958 c49.839257999999994,11.39274 134.99600999999998,16.105605 223.95488999999998,15.077757 c12.716208,-0.14781000000000005 25.507457999999996,-0.39795 38.285064,-0.7731600000000003 c25.541567999999998,-0.7617900000000003 51.01832699999999,-1.9692840000000005 75.703734,-3.620208000000001 s48.571503,-3.739593000000002 70.92947099999999,-6.239856000000001 c22.357968,-2.5014000000000003 43.177575,-5.4189419999999995 61.735689,-8.727612000000004 c18.558114,-3.3075330000000007 34.859283,-7.009605 48.14512799999999,-11.081202 c24.528501000000002,-7.516707000000002 51.954077999999996,-17.108439 79.701426,-27.625688999999998 c13.873673999999998,-5.258625 27.829212,-10.741239000000002 41.526651,-16.321635 c68.488332,-27.903116999999998 130.69814999999997,-58.062042 145.7634,-72.617916 c10.055286900000002,-9.713391000000001 35.638127999999995,-28.291971 56.849999999999994,-41.282196 c3.4875201,-2.1364230000000006 7.3092045000000025,-4.803825000000001 11.2590288,-7.728189000000004 c0.8834490000000003,-0.6480900000000002 1.7605308000000006,-1.3086870000000004 2.6647868999999997,-1.998846 c1.8777555000000004,-1.434894 3.8975223000000008,-3.1403939999999997 5.8627131,-4.729920000000001 c0.06822000000000002,0 0.13416600000000006,-0.12507000000000007 0.20011200000000007,-0.18192000000000008 c4.0083798,-3.2449980000000007 8.147969400000003,-6.752643000000002 12.480849000000001,-10.593429000000002 c0.09096000000000001,-0.11370000000000004 0.17509800000000003,-0.13644000000000003 0.2660580000000001,-0.22740000000000007 c1.7032260000000004,-1.5133469999999998 3.4044054000000017,-3.019872 5.1519744,-4.619631000000001 c5.8986423000000014,-5.390517 11.990801999999999,-11.138052 18.320480999999997,-17.409744 c0.09096000000000001,-0.11370000000000004 0.19329000000000007,-0.21603000000000006 0.2887980000000001,-0.30699000000000015 c7.122736500000001,-7.065318000000001 14.452407000000001,-14.596805999999999 21.962291999999998,-22.585368 c0.022740000000000003,0 0.056850000000000005,-0.11370000000000004 0.09096000000000001,-0.11370000000000004 c64.812411,-68.94995399999999 140.95389,-168.48065999999997 175.65512999999999,-235.23393 c82.50640499999999,-158.73657 106.67334,-256.30254 114.70055999999998,-462.79311 c3.997692,-102.89736299999998 2.9724590999999996,-210.02664 -2.2873029,-238.06505999999996 l-9.548980800000002,-50.964887999999995 h-980.1622199999999 l3.930609000000001,208.03689 l3.952894200000002,208.03689 l265.35305999999997,1.6645680000000005 c145.94531999999998,0.9096000000000003 268.41159,4.826565 272.15232,8.706009000000003 c16.015782,16.616118 -52.763622,158.61149999999998 -106.260609,219.38415 c-24.133961999999997,27.417617999999997 -52.827294,52.079147999999996 -84.78608999999999,73.727628 c-8.2712202,5.601999 -16.779846,10.978872000000003 -25.471074,16.165866 c-0.16145400000000007,0.11370000000000004 -0.30471600000000004,0.21603000000000006 -0.46617000000000014,0.30699000000000015 c-0.07959000000000002,0 -0.14781000000000005,0.11370000000000004 -0.22171500000000005,0.13644000000000003 c-0.056850000000000005,0 -0.11711100000000003,0.11370000000000004 -0.17737200000000006,0.11370000000000004 c-5.372097600000001,3.192696000000001 -10.9590882,6.1398 -16.477404,9.171042000000002 c-3.1623380999999995,1.7373360000000004 -6.2301915,3.580413000000001 -9.438009599999999,5.263173000000001 c-0.6856110000000002,0.36384000000000016 -1.3777029000000003,0.7049400000000002 -2.0652468000000006,1.0687800000000005 c-17.875913999999998,9.285879000000001 -36.415836,17.747433 -55.495833000000005,25.315305 c-0.056850000000000005,0 -0.10233000000000005,0 -0.15576900000000007,0.11370000000000004 h-0.11370000000000004 c-0.10233000000000005,0 -0.20807100000000006,0.11370000000000004 -0.3104010000000002,0.11370000000000004 c-0.28083900000000006,0.11370000000000004 -0.5628150000000002,0.22740000000000007 -0.8436540000000002,0.3297300000000001 c-9.6293667,3.793032000000001 -19.397219999999997,7.388226000000004 -29.268654,10.726458 c-0.09096000000000001,0 -0.17737200000000006,0.11370000000000004 -0.2660580000000001,0.11370000000000004 c-0.17737200000000006,0.11370000000000004 -0.35588100000000017,0.11370000000000004 -0.5332530000000002,0.18192000000000008 c-0.23535900000000007,0.11370000000000004 -0.4752660000000002,0.14781000000000005 -0.7106250000000003,0.22740000000000007 c-9.372404699999999,3.143805 -18.82872,6.069306 -28.380657,8.793557999999999 c-0.38885400000000014,0.11370000000000004 -0.7663380000000003,0.25014000000000014 -1.1548509000000002,0.3524700000000001 c-0.07959000000000002,0 -0.14781000000000005,0 -0.22171500000000005,0.11370000000000004 c-0.09096000000000001,0 -0.17850900000000006,0 -0.2660580000000001,0.11370000000000004 c-6.370724699999999,1.7987340000000005 -12.839004,3.3427800000000008 -19.275561,4.951635000000001 c-3.3062823,0.8300100000000002 -6.582661500000001,1.7555280000000006 -9.904293300000003,2.5320990000000005 c-1.2142023000000004,0.28425000000000006 -2.4257895,0.5685000000000001 -3.641924700000002,0.8413800000000002 c-0.03411000000000001,0.007958999999999997 -0.07959000000000002,0 -0.11370000000000004,0 c-9.822543000000001,2.233068000000001 -19.697388,4.300134000000001 -29.624534999999998,6.084087 c-0.04548000000000001,0.007958999999999997 -0.09096000000000001,0 -0.13302900000000006,0 c-0.03411000000000001,0.004548000000000001 -0.056850000000000005,0 -0.09096000000000001,0 c-0.24331800000000012,0 -0.4889100000000002,0.11370000000000004 -0.7322280000000002,0.11370000000000004 c-9.125220899999999,1.6259100000000004 -18.286371,3.002817 -27.46992,4.241010000000001 c-0.18533100000000008,0 -0.36952500000000016,0.11370000000000004 -0.5548560000000001,0.11370000000000004 c-0.17055000000000006,0 -0.3399630000000001,0 -0.5105130000000001,0.11370000000000004 c-1.2944745,0.17055000000000006 -2.5908819000000003,0.3524700000000001 -3.886266000000002,0.5116500000000002 c-0.3399630000000001,0 -0.6810630000000001,0.11370000000000004 -1.0210260000000002,0.13644000000000003 c-9.3705855,1.175658 -18.762774000000004,2.1477930000000005 -28.158941999999996,2.909583 c-1.6650228000000007,0.13644000000000003 -3.331410000000001,0.23877000000000007 -4.996546500000001,0.3524700000000001 c-0.007390500000000001,0 -0.011370000000000002,-0.0011370000000000002 -0.022740000000000003,0 c-0.07959000000000002,0.004548000000000001 -0.14781000000000005,0 -0.22171500000000005,0 c-0.07959000000000002,0.005685000000000001 -0.16259100000000004,0 -0.2444550000000001,0 c-8.804927999999999,0.6367200000000002 -17.607581999999997,1.1142600000000007 -26.404551,1.376907 c-0.17055000000000006,0.004548000000000001 -0.3411000000000001,0 -0.5105130000000001,0 c-0.7924890000000006,0 -1.5845232,0.11370000000000004 -2.3762163000000007,0.11370000000000004 c-9.6187926,0.25014000000000014 -19.227807,0.20466000000000004 -28.802483999999996,0 c-1.7331291000000006,0 -3.465348600000001,-0.11370000000000004 -5.1964311,-0.13644000000000003 c-0.09096000000000001,-0.003411000000000001 -0.19215300000000007,0.003411000000000001 -0.2887980000000001,0 c-0.09096000000000001,-0.002274 -0.17737200000000006,0 -0.2660580000000001,0 c-4.9360580999999994,-0.15918000000000004 -9.829365,-0.5230200000000002 -14.745752999999999,-0.7959 c-4.301384700000002,-0.23877000000000007 -8.619483300000004,-0.3524700000000001 -12.902676,-0.6935700000000001 c-1.5890712000000005,-0.12507000000000007 -3.1659765000000006,-0.30699000000000015 -4.7523189000000015,-0.4434300000000001 c-8.148196800000004,-0.7163100000000002 -16.255689,-1.621362 -24.317019,-2.686731 c-1.9294890000000011,-0.25014000000000014 -3.872280900000002,-0.47754000000000013 -5.796084900000001,-0.7504200000000003 c-9.027666300000002,-1.2927690000000003 -17.986203,-2.8299930000000004 -26.870721,-4.5752880000000005 c-1.7281263000000007,-0.3411000000000001 -3.452045700000001,-0.6822000000000001 -5.174145900000001,-1.0460400000000005 c-0.10233000000000005,0 -0.19215300000000007,0 -0.2887980000000001,-0.11370000000000004 c-9.1662666,-1.9044750000000006 -18.273864,-3.972678000000002 -27.248205,-6.374022000000002 c-10.430951699999998,-2.7901980000000006 -20.729784,-5.796426 -30.867276,-9.015273 h-0.022740000000000003 c-60.857924999999994,-19.325589000000004 -116.36058,-46.292955 -165.79734,-79.63434299999999 h-0.022740000000000003 c-16.47513,-11.113037999999998 -32.26806,-22.932153 -47.36742,-35.420961 h-0.022740000000000003 c-3.5309535000000007,-2.919816000000001 -6.8945406,-6.001086 -10.348519199999998,-8.992533 c-0.10233000000000005,-0.11370000000000004 -0.20352300000000015,-0.19329000000000007 -0.3104010000000002,-0.28425000000000006 c-33.352757999999994,-28.941197999999996 -63.231981,-61.110338999999996 -89.04983999999999,-96.22317299999999 c-11.429124,-15.541652999999998 -22.089636,-31.626792 -31.956521999999996,-48.232676999999995 c-24.664941000000002,-41.514144 -44.363465999999995,-86.226669 -58.67147399999999,-133.39283999999998 c-1.1335890000000008,-3.7373190000000007 -2.0653604999999997,-7.5565020000000045 -3.1311843,-11.325657 c-5.301944700000001,-18.745719000000005 -9.745454400000002,-37.865511 -13.346105999999999,-57.31617 c-0.18760500000000008,-1.0119300000000004 -0.37293600000000016,-2.0295450000000006 -0.5548560000000001,-3.041475 c-2.0020296,-11.110764 -3.695932200000001,-22.327269 -5.1298029,-33.64383 c-0.19101600000000005,-1.5133469999999998 -0.419553,-3.036927 -0.5991990000000001,-4.552548000000001 c-0.006139800000000001,0 -0.011370000000000002,-0.11370000000000004 -0.022740000000000003,-0.15918000000000004 c-0.04548000000000001,-0.37521000000000015 -0.06822000000000002,-0.7617900000000003 -0.11370000000000004,-1.137 c-0.5844180000000001,-4.9686900000000005 -1.1028900000000006,-9.962394000000002 -1.5766778999999997,-14.967467999999998 c-0.3092640000000001,-3.290478000000001 -0.5832810000000002,-6.599148 -0.8436540000000002,-9.904407 c-0.009323399999999999,-0.11370000000000004 -0.011370000000000002,-0.23877000000000007 -0.022740000000000003,-0.3524700000000001 c-0.5764590000000002,-7.289307000000002 -1.0358070000000006,-14.62182 -1.3767933000000003,-21.985032 c-0.0003411000000000001,-0.006822000000000002 0.0003411000000000001,0 0,0 c-0.22740000000000007,-5.002800000000001 -0.4366080000000001,-9.999915000000001 -0.5548560000000001,-15.034550999999999 c-0.09096000000000001,-3.963582000000002 -0.15008400000000008,-7.941945000000002 -0.17737200000000006,-11.924855999999998 c-0.0003411000000000001,-0.11370000000000004 0.00045480000000000016,-0.11370000000000004 0,-0.18192000000000008 c-0.011370000000000002,-2.8243080000000007 0.04548000000000001,-5.671356000000002 0.06822000000000002,-8.505897000000001 c0.022740000000000003,-3.353013000000001 0.022740000000000003,-6.694656000000002 0.09096000000000001,-10.059039000000004 c0.07959000000000002,-3.697524000000001 0.15576900000000007,-7.392774000000002 0.2887980000000001,-11.103942 c0.27401700000000007,-7.488282000000004 0.6605970000000002,-15.017496000000001 1.1769087,-22.562627999999997 c0.22057800000000008,-3.251820000000001 0.4673070000000002,-6.508188 0.7333650000000003,-9.771378 c0.31381200000000015,-3.821457000000001 0.7345020000000003,-7.669065000000002 1.1097120000000007,-11.503029 c0.32177100000000014,-3.2802450000000007 0.6094320000000003,-6.547983000000002 0.9766830000000003,-9.838461 c0.09096000000000001,-0.8527500000000002 0.14553600000000003,-1.6986780000000006 0.2444550000000001,-2.5537020000000004 c0.13871400000000006,-1.2074940000000003 0.23308500000000007,-2.4104400000000004 0.37748400000000015,-3.619071000000002 c0.056850000000000005,-0.45480000000000015 0.12165900000000006,-0.9209700000000003 0.17737200000000006,-1.376907 c0.5150610000000003,-4.218270000000001 1.2079488000000003,-8.469513000000003 1.7987340000000005,-12.702563999999999 c0.29789400000000005,-2.1318750000000004 0.5935140000000002,-4.261476000000002 0.9107370000000004,-6.395625 c0.3740730000000001,-2.5207290000000007 0.6867480000000001,-5.024403000000001 1.0881090000000009,-7.550817000000002 c0.4104570000000001,-2.5889490000000004 0.8265990000000003,-5.177898 1.2657084000000003,-7.772532000000004 c1.6275018000000003,-9.606513000000001 3.3765489000000013,-19.222122000000006 5.396315700000001,-28.89117 c1.9384713000000005,-9.279057 4.153461000000001,-18.483072000000003 6.6176811,-27.604086 c1.8368235000000004,-6.796986000000002 3.965287500000001,-13.504148999999998 6.084769199999999,-20.207900999999996 c0.0021603,-0.006822000000000002 -0.0021603,0 0,0 c2.6065725000000004,-8.242113000000002 5.440317600000001,-16.401225 8.460871800000001,-24.494391 c0.10233000000000005,-0.27288000000000007 0.18646800000000008,-0.5457600000000001 0.2887980000000001,-0.8186400000000001 h0.022740000000000003 c0.0023877,-0.006822000000000002 -0.0025014000000000004,0 0,0 c0.022740000000000003,-0.11370000000000004 0.06822000000000002,-0.13644000000000003 0.09096000000000001,-0.20466000000000004 c2.937780600000001,-7.816875000000002 6.08295,-15.560982 9.393552900000001,-23.227773 c0.28425000000000006,-0.6594600000000002 0.5571300000000001,-1.3200570000000003 0.8436540000000002,-1.9772430000000005 c3.3173112,-7.5974340000000025 6.8334837,-15.099359999999999 10.5039471,-22.539887999999998 c0.03411000000000001,-0.11370000000000004 0.056850000000000005,-0.13644000000000003 0.09096000000000001,-0.20466000000000004 c0.03411000000000001,-0.11370000000000004 0.056850000000000005,-0.13644000000000003 0.09096000000000001,-0.20466000000000004 c0.16145400000000007,-0.3297300000000001 0.3263190000000001,-0.6480900000000002 0.4889100000000002,-0.9778200000000004 c0.004548000000000001,-0.009095999999999998 0.022740000000000003,0 0.022740000000000003,0 h0.022740000000000003 c0.022740000000000003,0 0.022740000000000003,-0.11370000000000004 0.04548000000000001,-0.11370000000000004 c0.12052200000000003,-0.23877000000000007 0.23422200000000007,-0.4889100000000002 0.3547440000000001,-0.7276800000000003 c0.7231320000000003,-1.447401 1.5515502000000005,-2.8436369999999997 2.2873029,-4.2853530000000015 c2.885706,-5.654301000000002 5.799609599999999,-11.298369 8.8828125,-16.854888 c0.45252600000000015,-0.8186400000000001 0.8982300000000003,-1.6315950000000004 1.3546218000000003,-2.4434130000000005 c3.8430600000000017,-6.843603000000002 7.836431400000004,-13.608753 11.969199,-20.296587 c0.056850000000000005,-0.11370000000000004 0.10233000000000005,-0.19329000000000007 0.15576900000000007,-0.28425000000000006 c0.4320600000000001,-0.7049400000000002 0.8743530000000002,-1.3905509999999999 1.3102788000000003,-2.087532 c0.04548000000000001,-0.11370000000000004 0.10233000000000005,-0.14781000000000005 0.15576900000000007,-0.22740000000000007 c0.022740000000000003,0 0.022740000000000003,-0.11370000000000004 0.04548000000000001,-0.11370000000000004 c0.09096000000000001,-0.13644000000000003 0.17850900000000006,-0.28425000000000006 0.2660580000000001,-0.4206900000000001 c0.03411000000000001,0 0.056850000000000005,-0.11370000000000004 0.09096000000000001,-0.15918000000000004 c0.005571300000000002,-0.009095999999999998 0.011370000000000002,0 0.022740000000000003,0 s0.03411000000000001,0 0.04548000000000001,-0.11370000000000004 h0.022740000000000003 c1.4253432,-2.2705890000000006 2.9612027999999997,-4.475232000000001 4.419177900000001,-6.728766000000002 c2.7654114000000005,-4.2705720000000005 5.491368900000001,-8.567295000000001 8.3720721,-12.76851 c0.6833370000000003,-1.0005600000000003 1.3759974000000001,-1.9840650000000004 2.0652468000000006,-2.975529 c4.580745600000001,-6.593463000000002 9.290313300000001,-13.106199 14.145416999999998,-19.520016 c0.4150050000000001,-0.5457600000000001 0.8265990000000003,-1.1028900000000006 1.2435369000000003,-1.644102 c0.03411000000000001,0 0.07959000000000002,-0.11370000000000004 0.11370000000000004,-0.13644000000000003 c0.03411000000000001,0 0.07959000000000002,-0.11370000000000004 0.11370000000000004,-0.13644000000000003 c0.011370000000000002,0 0.022740000000000003,0 0.04548000000000001,-0.11370000000000004 c3.686949900000001,-4.828839 7.510680900000002,-9.557622000000002 11.347828499999999,-14.279582999999999 c1.3928250000000002,-1.7140275000000005 2.7183396,-3.474558300000001 4.130493600000001,-5.174259600000001 c0.11824800000000002,-0.14212500000000003 0.2376330000000001,-0.28083900000000006 0.3547440000000001,-0.4218270000000001 l0.04548000000000001,-0.04548000000000001 c0.022740000000000003,-0.022740000000000003 0.04548000000000001,-0.056850000000000005 0.06822000000000002,-0.09096000000000001 l0.06822000000000002,-0.06822000000000002 c0.13757700000000003,-0.16486500000000004 0.28425000000000006,-0.3240450000000001 0.4218270000000001,-0.4889100000000002 c5.449413600000001,-6.527175900000001 11.0178711,-12.966348 16.744599,-19.275561 c0.11938500000000003,-0.13189200000000006 0.23535900000000007,-0.2671950000000001 0.3547440000000001,-0.400224 l0.06822000000000002,-0.06822000000000002 c0.18987900000000005,-0.20920800000000006 0.38658000000000015,-0.4127310000000001 0.5775960000000002,-0.6219390000000001 c0.06822000000000002,-0.07959000000000002 0.15122100000000005,-0.14439900000000006 0.22171500000000005,-0.22171500000000005 c5.795743800000002,-6.3488943 11.703141,-12.603645 17.765625,-18.720705 c6.372657599999999,-6.4299624 12.890168999999998,-12.7344 19.542756,-18.898077 c32.045207999999995,-29.693891999999998 67.27628999999999,-56.16666299999999 104.70633,-78.96806099999999 c0.47754000000000013,-0.29107200000000005 0.9437100000000003,-0.5991990000000001 1.42125,-0.8879970000000003 c0.9926010000000003,-0.6003360000000003 1.9581414,-1.2477438000000003 2.9535848999999996,-1.8431907000000005 c0.13985100000000003,-0.07959000000000002 0.28311300000000006,-0.16145400000000007 0.4218270000000001,-0.2444550000000001 c5.5683438,-3.3272030999999997 11.237653199999997,-6.4776027 16.899230999999997,-9.637894200000002 c2.5214112000000006,-1.4064690000000002 5.0112138,-2.8686510000000003 7.550362200000002,-4.241464800000001 c5.1431058,-2.7825801000000006 10.354659000000002,-5.4188282999999995 15.566666999999999,-8.061216300000002 c0.056850000000000005,-0.03411000000000001 0.11824800000000002,-0.056850000000000005 0.17737200000000006,-0.09096000000000001 c0.3934020000000002,-0.1989750000000001 0.7833930000000003,-0.40136100000000013 1.1769087,-0.5991990000000001 c2.6442072000000003,-1.3318818000000003 5.266925099999999,-2.7020804999999997 7.927959900000004,-3.9973509000000007 c5.3526549,-2.6069136000000004 10.7712558,-5.071474800000001 16.188606,-7.528077000000002 c3.0479559000000007,-1.3812275999999999 6.081813,-2.7977022000000002 9.149211600000001,-4.130607299999999 c4.937991000000002,-2.1471108000000005 9.915322200000002,-4.1756325 14.901521999999998,-6.195740400000002 c0.06822000000000002,-0.022740000000000003 0.13189200000000006,-0.056850000000000005 0.20011200000000007,-0.09096000000000001 c3.722879100000001,-1.5060702000000004 7.444621200000002,-3.0294228 11.1922869,-4.4636346000000025 c0.14894700000000002,-0.056850000000000005 0.2956200000000001,-0.12052200000000003 0.44456700000000016,-0.17737200000000006 c0.12507000000000007,-0.04548000000000001 0.2524140000000001,-0.09096000000000001 0.37748400000000015,-0.13302900000000006 c3.844424400000002,-1.4659341000000004 7.7230725000000024,-2.830106700000001 11.591715,-4.219407000000001 c0.8368320000000002,-0.30016800000000016 1.6710489000000004,-0.6128430000000001 2.5093590000000003,-0.9107370000000004 c3.647723400000002,-1.2915183000000003 7.302609900000002,-2.5749639000000006 10.970344500000001,-3.7974663000000013 c4.7593683,-1.5873657 9.5327217,-3.1050332999999997 14.323926,-4.5746058000000005 c0.3399630000000001,-0.10233000000000005 0.6810630000000001,-0.206934 1.0221630000000004,-0.31153800000000015 c2.9543808,-0.9005040000000003 5.917289099999999,-1.7655336000000006 8.8828125,-2.6204438999999997 c0.5196090000000002,-0.15008400000000008 1.0346700000000004,-0.3183600000000001 1.5545064,-0.46617000000000014 c0.3399630000000001,-0.10233000000000005 0.6810630000000001,-0.19215300000000007 1.0210260000000002,-0.2887980000000001 c0.07959000000000002,-0.022740000000000003 0.14781000000000005,-0.04548000000000001 0.22171500000000005,-0.06822000000000002 c4.414743600000001,-1.2505863000000004 8.842903800000002,-2.4487569 13.28016,-3.597581700000002 c0.27401700000000007,-0.06822000000000002 0.5468970000000002,-0.15122100000000005 0.822051,-0.22171500000000005 c3.3075330000000007,-0.850476 6.6301881,-1.6269333000000004 9.948750000000002,-2.4205593000000003 c1.2160214999999999,-0.29107200000000005 2.4246525000000005,-0.6048840000000002 3.6420384000000023,-0.8879970000000003 c0.04548000000000001,-0.010233000000000003 0.09096000000000001,-0.011370000000000002 0.13302900000000006,-0.022740000000000003 c4.371992400000002,-1.0164780000000004 8.757515099999999,-1.9936158000000004 13.145994,-2.909128200000001 c4.462838700000002,-0.9300660000000002 8.9346597,-1.795777800000001 13.413189,-2.6204438999999997 c0.056850000000000005,-0.010687800000000003 0.11938500000000003,-0.011370000000000002 0.17737200000000006,-0.022740000000000003 c4.4828499000000015,-0.8254620000000003 8.9612655,-1.6361430000000006 13.457531999999999,-2.3539311000000005 c0.18533100000000008,-0.03411000000000001 0.37066200000000016,-0.056850000000000005 0.5548560000000001,-0.09096000000000001 c2.0688852000000004,-0.327456 4.146639,-0.5832810000000002 6.2180256,-0.8879970000000003 c0.6731040000000001,-0.10233000000000005 1.3473450000000002,-0.19215300000000007 2.0207901000000006,-0.2887980000000001 c1.6130619,-0.23194800000000007 3.2266923,-0.47071800000000014 4.841118600000001,-0.6878850000000002 c4.683985200000001,-0.6321720000000002 9.3633087,-1.2630933000000004 14.056731,-1.7765625000000005 c4.8571503,-0.5309790000000002 9.7249884,-0.9300660000000002 14.589983999999998,-1.3324503000000005 c4.027254,-0.33314100000000013 8.0497326,-0.7106250000000003 12.080625,-0.9550800000000003 c0.09096000000000001,-0.005798699999999998 0.19215300000000007,-0.011370000000000002 0.2887980000000001,-0.022740000000000003 c0.2660580000000001,-0.011370000000000002 0.5332530000000002,-0.006594599999999998 0.799311,-0.022740000000000003 c0.17737200000000006,-0.010460399999999998 0.35588100000000017,-0.011370000000000002 0.5332530000000002,-0.022740000000000003 c4.670227499999999,-0.2683320000000001 9.339886499999999,-0.4297860000000001 14.012387999999998,-0.5775960000000002 c0.06822000000000002,-0.0020466 0.13302900000000006,0.0021603 0.20011200000000007,0 c1.0733280000000005,-0.03411000000000001 2.1467697000000006,-0.056850000000000005 3.2199839999999997,-0.09096000000000001 c3.0124815,-0.07959000000000002 6.0257589000000005,-0.21944100000000008 9.038240400000001,-0.2444550000000001 c5.028496200000001,-0.04548000000000001 10.052558100000002,0.10233000000000005 15.078894,0.20011200000000007 c0.5844180000000001,0.011370000000000002 1.1696319,0.008300100000000001 1.7542773000000007,0.022740000000000003 c3.432716700000001,0.07959000000000002 6.8737335,0.09096000000000001 10.304062499999999,0.2444550000000001 c0.056850000000000005,0.002274 0.10233000000000005,-0.002274 0.15576900000000007,0 c3.822594000000001,0.16827600000000004 7.640412600000002,0.5241570000000003 11.458686,0.7777080000000003 c0.5696370000000002,0.03411000000000001 1.1402973000000003,0.06822000000000002 1.7099343000000005,0.11370000000000004 c0.5923770000000003,0.04548000000000001 1.1845266,0.09096000000000001 1.7765625000000005,0.13302900000000006 c0.5332530000000002,0.03411000000000001 1.0665060000000004,0.06822000000000002 1.5988493999999998,0.11370000000000004 c3.746869800000001,0.28652400000000006 7.495786200000001,0.47412900000000013 11.236857299999999,0.8436540000000002 c0.022740000000000003,0.0021603 0.04548000000000001,-0.0021603 0.06822000000000002,0 c5.3342355,0.5275680000000001 10.6475502,1.2775332000000001 15.966891,1.9764471 c0.3479220000000001,0.04548000000000001 0.6958440000000001,0.09096000000000001 1.0437660000000004,0.13302900000000006 c0.13416600000000006,0.022740000000000003 0.2660580000000001,0.04548000000000001 0.400224,0.06822000000000002 c0.23649600000000004,0.03411000000000001 0.47412900000000013,0.056850000000000005 0.7106250000000003,0.09096000000000001 c1.4650244999999997,0.1989750000000001 2.9334599999999997,0.34337400000000007 4.397006400000001,0.5548560000000001 c1.6201113000000005,0.23422200000000007 3.2449980000000007,0.3934020000000002 4.8634037999999995,0.6435420000000002 c9.0317595,1.4005566000000003 18.036231,3.0194172 27.003749999999997,4.929918300000001 c5.3442411,1.1385918 10.805024699999999,2.4261306 16.365978,3.8418093000000018 c5.5616355,1.4157924000000002 11.2124118,2.9707536 16.943573999999998,4.641234 c0.007049400000000002,0.0020466 0.011370000000000002,-0.0019329000000000006 0.022740000000000003,0 c22.925331,6.681694200000002 47.00358,15.301746 70.75096199999999,25.160672999999996 c23.748519,9.859154400000001 47.147979,20.956047 68.68617,32.555721 c26.921885999999997,14.497887 50.92850399999999,29.790536999999997 69.063654,44.480577 h0.022740000000000003 c3.622027200000001,2.9343696000000006 7.0190421,5.8524801 10.1486346,8.727270900000002 l32.399952,29.757564 l148.81055999999998,-148.29890999999998 c40.921766999999996,-40.781916 78.11189999999999,-79.61273999999999 105.083814,-109.32482399999999 c6.738657900000002,-7.423700400000004 12.850374,-14.279582999999999 18.210192000000003,-20.452355999999998 v-0.022740000000000003 c13.393859999999998,-15.426815999999999 22.178322,-26.587608 24.738846,-31.75641 v-0.022740000000000003 c0.5105130000000001,-1.0323960000000003 0.7777080000000003,-1.8165849000000005 0.7777080000000003,-2.3540448000000005 c0,-1.5871383000000003 -0.6105690000000001,-3.501050400000002 -1.7765625000000005,-5.707171499999999 c-3.495706500000001,-6.615975600000001 -12.015816,-15.875931 -24.205592999999997,-26.803638 h-0.022740000000000003 c-16.2591,-14.574066 -39.050264999999996,-32.140716 -65.20012799999999,-50.475978 h-0.022740000000000003 c-13.073225999999998,-9.1667214 -26.975324999999998,-18.5331 -41.327676,-27.803061 h-0.022740000000000003 c-28.710387,-18.543333 -59.176302,-36.753524999999996 -88.228926,-52.364535 h-0.022740000000000003 c-14.528585999999999,-7.806073500000002 -28.684236,-14.972016000000002 -42.104247,-21.207324 c-8.8431312,-4.108776900000002 -17.797461000000002,-8.051892900000002 -26.803638,-11.880512999999999 c-2.0533083000000003,-0.8732160000000002 -4.134359400000001,-1.6953807000000005 -6.195740400000002,-2.5538157000000004 c-6.795280500000002,-2.8294245000000005 -13.616712,-5.589264600000002 -20.496699,-8.260987199999999 c-0.09096000000000001,-0.03411000000000001 -0.19215300000000007,-0.06822000000000002 -0.2887980000000001,-0.11370000000000004 c-0.11370000000000004,-0.04548000000000001 -0.22171500000000005,-0.09096000000000001 -0.33314100000000013,-0.13302900000000006 c-0.011370000000000002,-0.005912400000000002 -0.03411000000000001,-0.011370000000000002 -0.04548000000000001,-0.022740000000000003 c-0.03411000000000001,-0.011370000000000002 -0.06822000000000002,-0.03411000000000001 -0.11370000000000004,-0.04548000000000001 c-2.7126546,-1.0505880000000003 -5.446798500000001,-2.060698800000001 -8.172187500000001,-3.086727600000001 c-0.011370000000000002,-0.004889100000000001 -0.03411000000000001,0.004889100000000001 -0.04548000000000001,0 c-0.03411000000000001,-0.011370000000000002 -0.07959000000000002,-0.03411000000000001 -0.11370000000000004,-0.04548000000000001 c-0.13985100000000003,-0.056850000000000005 -0.28197600000000006,-0.10233000000000005 -0.4218270000000001,-0.15576900000000007 c-5.7518556,-2.1612096000000003 -11.515535999999999,-4.298883300000001 -17.321058,-6.3511683 c-4.0277088,-1.4237513999999998 -8.0722452,-2.8035009 -12.124967999999999,-4.1749503 c-5.088075000000001,-1.7217591000000005 -10.197070800000004,-3.401562900000001 -15.323349,-5.041003200000002 c-3.798944400000002,-1.2149982000000001 -7.595501100000003,-2.4277224000000004 -11.414342999999999,-3.597581700000002 c-0.011370000000000002,-0.004093200000000001 -0.03411000000000001,0.004206900000000001 -0.04548000000000001,0 c-0.11824800000000002,-0.03411000000000001 -0.23649600000000004,-0.07959000000000002 -0.3547440000000001,-0.11370000000000004 c-0.09096000000000001,-0.03411000000000001 -0.19215300000000007,-0.056850000000000005 -0.2887980000000001,-0.09096000000000001 c-5.7268416,-1.7497293000000005 -11.485973999999999,-3.414979500000001 -17.255112,-5.063288400000002 c-0.3263190000000001,-0.09096000000000001 -0.6503640000000002,-0.19556400000000007 -0.9766830000000003,-0.2887980000000001 c-0.30471600000000004,-0.09096000000000001 -0.6060210000000003,-0.179646 -0.9107370000000004,-0.2660580000000001 c-0.07959000000000002,-0.022740000000000003 -0.14781000000000005,-0.04548000000000001 -0.22171500000000005,-0.06822000000000002 c-2.6577375,-0.7526940000000004 -5.3059242,-1.5338130000000005 -7.972302900000002,-2.2651314000000005 c-0.006822000000000002,-0.0019329000000000006 -0.011370000000000002,0.0018192 -0.022740000000000003,0 c-0.04548000000000001,-0.011370000000000002 -0.09096000000000001,-0.03411000000000001 -0.13302900000000006,-0.04548000000000001 c-7.406076900000002,-2.0304546000000006 -14.849219999999999,-3.953349000000001 -22.318172999999998,-5.818256400000002 c-1.8018039000000006,-0.45025200000000015 -3.5911008000000013,-0.9368880000000003 -5.396315700000001,-1.3767933000000003 c-0.19215300000000007,-0.04548000000000001 -0.38544300000000015,-0.09096000000000001 -0.5775960000000002,-0.13302900000000006 c-0.10233000000000005,-0.022740000000000003 -0.205797,-0.06822000000000002 -0.3104010000000002,-0.09096000000000001 c-9.6249324,-2.3383542 -19.286931000000003,-4.552548000000001 -29.002596,-6.6176811 c-9.806738699999999,-2.0845758000000005 -19.670099999999998,-4.011449700000001 -29.557451999999998,-5.818256400000002 c-2.0529672000000003,-0.37521000000000015 -4.117304400000001,-0.7026660000000002 -6.173455199999999,-1.0653690000000007 c-0.011370000000000002,-0.0026150999999999995 -0.03411000000000001,0.0025014000000000004 -0.04548000000000001,0 l-0.3547440000000001,-0.06822000000000002 c-0.022740000000000003,-0.0038658000000000013 -0.04548000000000001,0.003752100000000001 -0.06822000000000002,0 c-0.056850000000000005,-0.009095999999999998 -0.10233000000000005,-0.011370000000000002 -0.15576900000000007,-0.022740000000000003 c-0.37066200000000016,-0.06822000000000002 -0.7401870000000004,-0.13530300000000006 -1.1108490000000009,-0.20011200000000007 c-6.886467900000004,-1.2046515 -13.777028999999999,-2.3713272000000005 -20.696811,-3.4421538 c-0.06822000000000002,-0.010233000000000003 -0.13416600000000006,-0.011370000000000002 -0.20011200000000007,-0.022740000000000003 c-0.011370000000000002,-0.002274 -0.03411000000000001,0.002274 -0.04548000000000001,0 l-0.022740000000000003,-0.022740000000000003 c-0.04548000000000001,-0.006935699999999998 -0.09096000000000001,-0.011370000000000002 -0.13302900000000006,-0.022740000000000003 c-3.463984200000001,-0.5343900000000001 -6.943431600000002,-1.0085190000000006 -10.415033699999999,-1.5100497 c-6.319900800000002,-0.9118740000000003 -12.644577,-1.7968011000000006 -18.986763000000003,-2.5982724000000004 c-3.676034700000002,-0.46389600000000014 -7.354116000000004,-0.9050520000000003 -11.036972699999998,-1.3323366000000003 c-6.262482300000002,-0.7265430000000003 -12.52974,-1.3797495 -18.809391,-1.9986186000000004 c-0.206934,-0.022740000000000003 -0.4150050000000001,-0.04548000000000001 -0.6219390000000001,-0.06822000000000002 c-0.07959000000000002,-0.007276799999999997 -0.14781000000000005,-0.011370000000000002 -0.22171500000000005,-0.022740000000000003 c-0.011370000000000002,-0.0015918000000000004 -0.022740000000000003,-0.022740000000000003 -0.04548000000000001,-0.022740000000000003 c-0.022740000000000003,-0.0021603 -0.04548000000000001,0.0021603 -0.06822000000000002,0 c-0.056850000000000005,-0.005798699999999998 -0.11824800000000002,-0.011370000000000002 -0.17737200000000006,-0.022740000000000003 c-0.03411000000000001,-0.0028425000000000013 -0.056850000000000005,0.0028425000000000013 -0.09096000000000001,0 c-3.1754136000000006,-0.3092640000000001 -6.3474162,-0.6287610000000001 -9.526809300000002,-0.9107370000000004 c-6.549347400000002,-0.5810070000000002 -13.111884,-1.0676430000000006 -19.675785,-1.5323349 l-0.9994230000000003,-0.06822000000000002 c-2.1333531000000003,-0.14894700000000002 -4.2609075,-0.3740730000000001 -6.395625,-0.5105130000000001 c-0.9982860000000002,-0.06822000000000002 -1.9991871,-0.09096000000000001 -2.9979279,-0.15576900000000007 c-7.094084100000002,-0.43547100000000016 -14.192034,-0.7663380000000003 -21.296010000000003,-1.0653690000000007 c-3.0362448,-0.12848100000000007 -6.067259400000002,-0.2967570000000001 -9.104982300000001,-0.400224 c-9.9064536,-0.3365520000000001 -19.820184,-0.5696370000000002 -29.734824,-0.6435420000000002 z" filter="" stroke-width="0" id="svg_3"/>
   <g stroke-width="0" id="svg_4" filter="">
    <path d="m1126.5761049682615,2365.7809475250233 c-452.08257,-103.35102599999999 -787.2587999999998,-488.26190999999994 -826.18968,-948.7810199999999 c-32.55231,-385.10189999999994 172.50564,-770.05599 523.1223299999999,-982.06101 c272.47067999999996,-164.7513 661.69989,-183.69371999999998 956.8309799999998,-46.56469799999999 c107.35781399999999,49.881327 262.93125,158.96397 262.93125,184.35317999999998 c0,8.597994000000002 -66.96361499999999,82.367691 -148.81055999999998,163.93265999999997 l-148.81055999999998,148.29890999999998 l-32.402226,-29.763249 c-50.137152,-46.055322 -166.49090999999999,-101.183904 -251.99330999999998,-119.39636999999999 c-296.89343999999994,-63.252447 -633.51366,156.07599 -695.59386,453.23094 c-73.080675,349.83216 112.159365,661.6202999999999 446.17017,750.97713 c198.32691,53.058105 447.45498,-16.090823999999998 573.3777299999999,-159.14588999999998 c53.496987,-60.776061 122.27297999999999,-202.78395 106.25265,-219.39551999999998 c-3.7378875000000007,-3.8794440000000012 -126.207,-7.796409000000004 -272.15232,-8.704872000000003 l-265.35305999999997,-1.652061 l-3.9325419000000026,-208.03689 l-3.934020000000002,-208.03689 h980.1394799999998 l9.562170000000002,50.972847 c5.259761999999999,28.035009 6.289884,135.16655999999998 2.292192,238.06505999999996 c-8.026083000000002,206.49057 -32.208936,304.04517 -114.71193,462.78173999999996 c-51.0513,98.21633399999999 -191.82326999999998,267.51336 -254.19908999999998,305.71656 c-21.211872,12.990225 -46.794371999999996,31.565394 -56.849999999999994,41.278785 c-24.110084999999998,23.288034 -168.88997999999998,86.48817899999999 -267.00171,116.55386999999999 c-106.28221199999999,32.570502 -404.84022,41.418636 -518.7562499999999,15.375651 z" fill="#607ef4" stroke-width="0" id="svg_5" filter=""/>
    <path d="m1356.591204968261,297.1231475250229 c-189.62886,-1.4236377000000005 -379.81485,45.122982 -533.08245,137.79303 c-350.61668999999995,212.00502 -555.6860099999999,596.95911 -523.1337,982.06101 c38.928605999999995,460.51910999999996 374.10711,845.4277199999999 826.18968,948.7696499999998 c113.91602999999999,26.042985 412.46949,17.202809999999996 518.7562499999999,-15.367691999999998 c98.11286699999998,-30.066827999999997 242.88593999999998,-93.27720599999999 266.99033999999995,-116.56524 c10.055286900000002,-9.713391000000001 35.638127999999995,-28.293107999999997 56.849999999999994,-41.283333 c19.973679000000004,-12.231846 48.01550999999999,-37.984896 78.546234,-70.463301 l-347.29665,-267.50199 c-134.80272,91.30564799999999 -328.26327,128.32181999999997 -488.5802699999999,85.430769 c-334.01649,-89.35682999999999 -519.2678999999999,-401.15633999999994 -446.1815399999999,-750.99987 c62.075652,-297.15495 398.68904999999995,-516.47088 695.59386,-453.2195699999999 c85.508085,18.217014 201.86298,73.35241799999999 252.00468,119.40774 l32.399952,29.757564 l148.81055999999998,-148.29890999999998 c81.84239699999999,-81.56496899999999 148.81055999999998,-155.33694 148.81055999999998,-163.93265999999997 c0,-25.394894999999995 -155.57571,-134.48435999999998 -262.93125,-184.36454999999998 c-129.11772,-59.992667999999995 -276.26826,-90.11861999999999 -423.7599,-91.226058 z" fill="#68a851" stroke-width="0" id="svg_6" filter=""/>
    <path d="m1356.591204968261,297.1231475250229 c-189.62886,-1.4236377000000005 -379.81485,45.122982 -533.08245,137.79303 c-350.61668999999995,212.00502 -555.6860099999999,596.95911 -523.1337,982.06101 c11.422301999999998,135.13244999999998 48.511242,263.65893 106.41637800000001,380.56526999999994 l367.47839999999997,-280.07721 c-28.526193,-100.85872199999999 -32.833149,-212.53941 -8.616413400000004,-328.46792999999997 c62.075652,-297.15495 398.68904999999995,-516.47088 695.59386,-453.2195699999999 c85.508085,18.217014 201.86298,73.35241799999999 252.00468,119.40774 l32.399952,29.757564 l148.81055999999998,-148.29890999999998 c81.84239699999999,-81.56496899999999 148.81055999999998,-155.33694 148.81055999999998,-163.93265999999997 c0,-25.394894999999995 -155.57571,-134.48435999999998 -262.93125,-184.36454999999998 c-129.11772,-59.992667999999995 -276.26826,-90.11861999999999 -423.7599,-91.226058 z" fill="#e9bf06" stroke-width="0" id="svg_7" filter=""/>
    <path d="m1356.591204968261,297.1231475250229 c-189.62886,-1.4236377000000005 -379.81485,45.122982 -533.08245,137.79303 c-174.84786,105.71939699999999 -313.4709,254.44923 -404.49912,424.74908999999997 l359.34884999999997,281.5212 c86.112969,-272.35697999999996 402.17963999999995,-465.21491999999995 682.89357,-405.40871999999996 c85.508085,18.217014 201.86298,73.35241799999999 252.00468,119.40774 l32.399952,29.757564 l148.81055999999998,-148.29890999999998 c81.84239699999999,-81.56496899999999 148.81055999999998,-155.33694 148.81055999999998,-163.93265999999997 c0,-25.394894999999995 -155.57571,-134.48435999999998 -262.93125,-184.36454999999998 c-129.11772,-59.992667999999995 -276.26826,-90.11861999999999 -423.7599,-91.226058 z" fill="#ca4b3a" stroke-width="0" id="svg_8" filter=""/>
   </g>
  </g>
 </g></g></svg>