<svg xmlns="http://www.w3.org/2000/svg" width="50" height="50"><rect id="backgroundrect" width="100%" height="100%" x="0" y="0" fill="none" stroke="none"/>
 
<g class="currentLayer" style=""><title>Layer 1</title><path fill="" fill-opacity="1" stroke="#000" stroke-opacity="1" stroke-width="1" stroke-dasharray="none" stroke-linejoin="miter" stroke-linecap="butt" stroke-dashoffset="" fill-rule="nonzero" opacity="1" marker-start="" marker-mid="" marker-end="" d="M20.12408829561074,9.934306517419525 C20.12408829561074,7.321087148259814 22.306126324916253,5.204379459240447 25.000000435169973,5.204379459240447 C27.693874545423697,5.204379459240447 29.875912574729213,7.321087148259814 29.875912574729213,9.934306517419525 C29.875912574729213,12.547525886579237 27.693874545423697,14.664233575598608 25.000000435169973,14.664233575598608 C22.306126324916253,14.664233575598608 20.12408829561074,12.547525886579237 20.12408829561074,9.934306517419525 z" id="svg_1" class="" filter=""/><path fill="" fill-opacity="1" stroke="#000" stroke-opacity="1" stroke-width="1" stroke-dasharray="none" stroke-linejoin="miter" stroke-linecap="butt" stroke-dashoffset="" fill-rule="nonzero" opacity="1" marker-start="" marker-mid="" marker-end="" d="M20.124087267430617,25.00000025349588 C20.124087267430617,22.38678088433617 22.30612529673613,20.2700731953168 24.99999940698985,20.2700731953168 C27.693873517243574,20.2700731953168 29.87591154654909,22.38678088433617 29.87591154654909,25.00000025349588 C29.87591154654909,27.613219622655592 27.693873517243574,29.729927311674963 24.99999940698985,29.729927311674963 C22.30612529673613,29.729927311674963 20.124087267430617,27.613219622655592 20.124087267430617,25.00000025349588 z" class="" filter="" id="svg_3"/><path fill="" fill-opacity="1" stroke="#000" stroke-opacity="1" stroke-width="1" stroke-dasharray="none" stroke-linejoin="miter" stroke-linecap="butt" stroke-dashoffset="" fill-rule="nonzero" opacity="1" marker-start="" marker-mid="" marker-end="" d="M20.124087833674743,40.00729896145792 C20.124087833674743,37.39407959229821 22.306125862980256,35.27737190327883 24.999999973233976,35.27737190327883 C27.6938740834877,35.27737190327883 29.875912112793216,37.39407959229821 29.875912112793216,40.00729896145792 C29.875912112793216,42.62051833061763 27.6938740834877,44.737226019637 24.999999973233976,44.737226019637 C22.306125862980256,44.737226019637 20.124087833674743,42.62051833061763 20.124087833674743,40.00729896145792 z" class="" filter="" id="svg_4"/></g></svg>